<svg width="1200" height="1500" viewBox="0 0 1200 1500" fill="none" xmlns="http://www.w3.org/2000/svg" role="img" aria-labelledby="title desc">
  <title id="title">Imagen no disponible</title>
  <desc id="desc">Placeholder para obras del archivo MET sin reproduccion visual disponible.</desc>
  <defs>
    <linearGradient id="bg" x1="160" y1="120" x2="980" y2="1320" gradientUnits="userSpaceOnUse">
      <stop stop-color="#20312C"/>
      <stop offset="0.55" stop-color="#355347"/>
      <stop offset="1" stop-color="#A8D8BE"/>
    </linearGradient>
    <radialGradient id="glow" cx="0" cy="0" r="1" gradientUnits="userSpaceOnUse" gradientTransform="translate(920 260) rotate(127.875) scale(627.759 493.111)">
      <stop stop-color="#F2C67C" stop-opacity="0.32"/>
      <stop offset="1" stop-color="#F2C67C" stop-opacity="0"/>
    </radialGradient>
  </defs>
  <rect width="1200" height="1500" rx="48" fill="url(#bg)"/>
  <rect width="1200" height="1500" rx="48" fill="url(#glow)"/>
  <rect x="92" y="92" width="1016" height="1316" rx="36" stroke="rgba(255,255,255,0.18)" stroke-width="4"/>
  <rect x="160" y="192" width="880" height="1116" rx="28" fill="rgba(16,22,20,0.22)" stroke="rgba(255,255,255,0.14)" stroke-width="3"/>
  <path d="M395 508C395 393.125 488.125 300 603 300C717.875 300 811 393.125 811 508V614H851C884.137 614 911 640.863 911 674V960C911 993.137 884.137 1020 851 1020H355C321.863 1020 295 993.137 295 960V674C295 640.863 321.863 614 355 614H395V508ZM475 614H731V508C731 437.308 673.692 380 603 380C532.308 380 475 437.308 475 508V614Z" fill="rgba(255,255,255,0.9)"/>
  <text x="600" y="1118" text-anchor="middle" fill="#F6F4EE" font-family="Georgia, 'Times New Roman', serif" font-size="72" letter-spacing="6">ARCHIVO MET</text>
  <text x="600" y="1194" text-anchor="middle" fill="rgba(246,244,238,0.72)" font-family="Arial, Helvetica, sans-serif" font-size="32" letter-spacing="4">REPRODUCCION NO DISPONIBLE</text>
  <text x="600" y="1260" text-anchor="middle" fill="rgba(246,244,238,0.58)" font-family="Arial, Helvetica, sans-serif" font-size="24" letter-spacing="3">La ficha puede consultarse igual aunque el museo no provea imagen.</text>
</svg>